<?xml version="1.0" encoding="UTF-8"?>
<!DOCTYPE svg PUBLIC "-//W3C//DTD SVG 1.1//EN" "http://www.w3.org/Graphics/SVG/1.1/DTD/svg11.dtd">
<!-- Creator: CorelDRAW 2020 (64 Bit) -->
<svg xmlns="http://www.w3.org/2000/svg" xml:space="preserve" width="513px" height="513px" version="1.1" style="shape-rendering:geometricPrecision; text-rendering:geometricPrecision; image-rendering:optimizeQuality; fill-rule:evenodd; clip-rule:evenodd"
viewBox="0 0 295.5 295.5"
 xmlns:xlink="http://www.w3.org/1999/xlink"
 xmlns:xodm="http://www.corel.com/coreldraw/odm/2003">
 <defs>
  <style type="text/css">
   <![CDATA[
    .str0 {stroke:#FEFEFE;stroke-width:1.15;stroke-miterlimit:22.9256}
    .str1 {stroke:black;stroke-width:1.15;stroke-miterlimit:22.9256}
    .str2 {stroke:#FF4001;stroke-width:1.15;stroke-miterlimit:22.9256}
    .fil0 {fill:#FEFEFE}
    .fil4 {fill:black}
    .fil3 {fill:#0B090E}
    .fil6 {fill:#333333}
    .fil7 {fill:#CCCCCC}
    .fil1 {fill:#D1D3D4}
    .fil9 {fill:#FF4001}
    .fil2 {fill:white}
    .fil8 {fill:black;fill-rule:nonzero}
    .fil5 {fill:#0B090E;fill-rule:nonzero}
   ]]>
  </style>
 </defs>
 <g id="Camada_x0020_1">
  <metadata id="CorelCorpID_0Corel-Layer"/>
  <g id="_2165024539600">
   <path class="fil0 str0" d="M147.75 0.57c81.28,0 147.18,65.9 147.18,147.18 0,81.28 -65.9,147.18 -147.18,147.18 -81.28,0 -147.18,-65.9 -147.18,-147.18 0,-81.28 65.9,-147.18 147.18,-147.18z"/>
   <path class="fil1" d="M147.08 10.57c76.68,0 138.84,61.62 138.84,137.63 0,76.01 -62.16,137.63 -138.84,137.63 -76.68,0 -138.84,-61.62 -138.84,-137.63 0,-76.01 62.16,-137.63 138.84,-137.63z"/>
   <path class="fil2" d="M170 234.4c-80.26,0 -145.86,-62.17 -150.49,-140.58 21.27,-48.96 70.38,-83.25 127.57,-83.25 76.68,0 138.84,61.62 138.84,137.63 0,13.36 -1.93,26.28 -5.51,38.49 -27.52,29.34 -66.8,47.71 -110.41,47.71z"/>
   <path class="fil3" d="M147.08 45.39c20.12,-11.33 27.07,-12.87 45.98,-16.45 -1.81,-4.34 -3.29,-7.61 -4.94,-10.56 -12.84,-5.05 -26.65,-7.81 -41.04,-7.81 -14.39,0 -28.21,2.76 -41.06,7.82 -1.67,2.94 -3.14,6.21 -4.91,10.55 18.98,2.9 29.32,8.62 45.97,16.45z"/>
   <path class="fil3" d="M147.08 85.01c23.85,13.42 31.56,18.84 51.73,37.26 -5.5,26.63 -8.32,35.58 -19.76,60.28 -27.25,3.04 -36.7,3.15 -63.94,0 -11.34,-24.75 -14.36,-33.63 -19.76,-60.28 20.25,-18.34 27.83,-23.93 51.73,-37.26z"/>
   <path class="fil4 str1" d="M236.5 59c5.77,0.55 8.53,-2.16 14.8,-1.72 20.68,23.28 33.55,53.53 34.55,86.74 -7.2,4.21 -14.3,7.11 -21.03,9.89 -8.2,-26.39 -16.49,-34.36 -31.55,-44.5 4.52,-20.78 6.22,-30.09 3.23,-50.41z"/>
   <path class="fil3 str1" d="M60.94 56.08c-5.77,0.55 -11.8,0.76 -18.08,1.2 -20.68,23.28 -33.55,53.53 -34.55,86.74 7.21,4.21 14.3,7.11 21.04,9.89 8.19,-26.39 16.49,-34.36 31.54,-44.5 -4.35,-16.74 -2.94,-33.01 0.05,-53.33z"/>
   <polygon class="fil5" points="84.32,223.25 116.88,177.03 119.73,179 87.17,225.23 "/>
   <polygon class="fil5" points="178.39,178.6 208.73,221.68 205.88,223.65 175.54,180.57 "/>
   <polygon class="fil5" points="193.95,122.24 236.91,106.21 238.13,109.44 195.18,125.47 "/>
   <polygon class="fil5" points="98.66,125.35 56.35,109.56 57.58,106.33 99.89,122.12 "/>
   <polygon class="fil5" points="145.34,91.91 145.34,40.47 148.83,40.47 148.83,91.91 "/>
   <path class="fil5" d="M188.13 24.55c0.1,0.04 35.31,10.95 53.8,37.26l-2.87 1.98c-17.81,-25.36 -51.89,-35.92 -51.99,-35.95l1.06 -3.29z"/>
   <path class="fil4 str1" d="M255.58 200.28c1.29,6.79 4.46,18.36 5.95,25.85 -17.72,25.52 -43.9,44.81 -74.52,53.92 -6.42,-5.89 -11.4,-12.09 -16.14,-17.94 23.3,-15.14 28.71,-25.25 34.35,-42.41 23.87,-1.2 39.98,-11.17 50.36,-19.42z"/>
   <path class="fil4 str1" d="M38.59 200.28c-1.3,6.79 -4.47,18.36 -5.95,25.85 17.71,25.52 43.89,44.81 74.51,53.92 6.43,-5.89 11.41,-12.09 16.15,-17.94 -18.33,-14.23 -28.71,-25.25 -34.35,-42.41 -23.87,-1.2 -39.99,-11.17 -50.36,-19.42z"/>
   <path class="fil5" d="M30.24 146.24c0,0.08 0.11,27.79 12.35,59.09l-3.24 1.24c-12.48,-31.88 -12.59,-60.24 -12.59,-60.32l3.48 -0.01z"/>
   <path class="fil5" d="M268.77 144.95c0,0.08 -0.67,28.44 -13.77,60.31l-3.23 -1.3c12.87,-31.31 13.53,-59.02 13.53,-59.1l3.47 0.09z"/>
   <path class="fil5" d="M106.23 28.97c-0.08,0.02 -29.81,6.99 -47.4,32.03l-2.87 -1.97c18.35,-26.12 49.37,-33.39 49.46,-33.41l0.81 3.35z"/>
   <path class="fil5" d="M116.03 259.38c0.06,0.02 20.46,6.19 63.06,-0.05l0.5 3.41c-43.34,6.35 -64.47,-0.03 -64.53,-0.05l0.97 -3.31z"/>
   <path class="fil6" d="M191.62 123.85c0,0 -6.76,37.78 -16.92,53.58 0,0 -11.16,2.01 -31.07,1.59 -19.91,-0.41 -25.32,-3.1 -25.32,-3.1 19.83,0.09 33.76,1.37 53.41,-1.26 0,0 11.51,-21.09 19.9,-50.81z"/>
   <path class="fil6" d="M117.17 263.33c-8.76,7.65 -9.21,14.01 -21.19,9.37 -13.07,-5.06 -38.23,-25.12 -43.1,-30.49 6.94,5.39 27.86,20.7 42.35,26.17 9.82,3.7 14.08,1.67 21.94,-5.05z"/>
   <path class="fil6" d="M185.05 272.31l-8.5 -9.96c0,0 28.41,-21.81 33.3,-38.86 0,0 36.94,-5.99 43.97,-16.97l3 11.29 -3.93 -5.08c-1.53,1.12 -21.73,10.73 -40.38,14.62 -5.61,12.04 -16.91,24.76 -31.49,35.76 0,0 3.72,5.51 4.03,9.2z"/>
   <path class="fil6" d="M149.12 36.34c0,0 25.71,-9.12 33.69,-9.07 7.98,0.04 1.96,-5.19 -0.22,-7.78 -2.18,-2.6 -0.21,3.99 -0.21,3.99 0,0 -16.14,2.6 -33.26,12.86z"/>
   <path class="fil6" d="M241.68 64.44c2.63,13.07 5.96,28.91 1.86,41.94 16.23,13.05 18.22,19.02 24.96,37.5l10.14 0.43 -10.25 3.24c0,0 -13.82,-28.36 -22.35,-34.04 -8.52,-5.68 -8.52,-5.68 -8.52,-5.68 0,0 7.43,-15.94 4.16,-43.39z"/>
   <path class="fil6" d="M12.73 142.15c1.42,0.54 12.29,4.43 14.06,5.4 1.78,0.98 10.17,-22.42 18.97,-29.39 0,0 -3.42,1.91 -7.76,6.68 -2.63,2.88 -6.32,7.78 -7.72,11.21 -3.7,9.07 -4.36,7.99 -4.36,7.99l-13.19 -1.89z"/>
   <path class="fil7" d="M38.07 177.72c0,0 1.36,20.74 8.03,25.93 6.67,5.18 35.41,14.43 39.58,12.13 4.18,-2.3 16.81,-22.6 20.57,-27.05 1.95,-2.32 -1.42,-0.25 -4.41,3.17 -4.02,4.61 -11.04,12.59 -13.89,16.82 -4.97,7.37 -20.95,0.61 -28,-2.18 -3.64,-1.44 -7.65,-2.67 -11.47,-6.84 -3.59,-3.92 -6.71,-11.21 -10.41,-21.98z"/>
   <path class="fil7" d="M201.99 129.24l-8.94 32.03c0,0 -4.02,11.88 -3.65,14.83 0.35,2.84 6.51,-10.97 7.47,-13.75 0.67,-2.12 2.39,-5.27 3.48,-12.29 1.8,-11.7 1.57,-20.81 1.64,-20.82z"/>
   <path class="fil7" d="M232.3 117.7c-10.51,1.79 -15.77,3.55 -25.81,7.22 0,0 -1.51,2.76 3.03,2.34 1.97,-0.18 6.18,-2.52 11.46,-4.27 3.93,-1.3 8.68,-3.36 10.97,-4.28 1.72,-0.7 0.35,-1.01 0.35,-1.01z"/>
   <path class="fil7" d="M34.66 150.73l13.84 -21.91c0,0 5.66,-7.97 6.04,-10.25 0.37,-2.2 -7.31,6.74 -8.65,8.61 -0.97,1.43 -2.96,3.39 -5.34,8.39 -3.97,8.32 -5.83,15.17 -5.89,15.16z"/>
   <path class="fil7" d="M80.77 122.95c-7.24,-4.02 -11.28,-5.51 -19.17,-8.17 0,0 -2.27,0.93 0.68,2.88 1.28,0.85 4.98,1.48 9.03,2.99 3.02,1.12 6.91,2.18 8.75,2.74 1.38,0.41 0.71,-0.44 0.71,-0.44z"/>
   <path class="fil7" d="M212.35 211.07c0,0 31.41,-6.37 34.86,-12.93 3.44,-6.56 12.38,-38.51 12.55,-43.59 0.17,-5.08 -5.35,-18.15 -4.64,-16.74 0.7,1.41 7.29,11.86 7.2,14.96 -0.1,3.09 -7.2,43.82 -14.13,49.48 -6.94,5.65 -34.23,12.7 -35.84,8.82z"/>
   <path class="fil7" d="M167.36 190.31c-18.7,1.17 -28.35,0.55 -46.93,-1.05 0,0 -3.63,-1.24 4.32,-2.23 3.45,-0.44 13.24,1.16 22.94,1.74 7.22,0.44 14.44,-0.23 18.71,0.26 3.21,0.37 0.96,1.28 0.96,1.28z"/>
   <path class="fil7" d="M186.95 239.96c0,0 -9.28,9.32 -12.2,12.65 -2.92,3.33 -28.78,0.95 -40.07,1.89 -4.7,0.4 -10.16,-1.01 -14.74,-3.7 -6.83,-3.99 -13.17,-8.84 -18,-12.56 8.99,9.84 13.64,14.09 18.79,18.07 3.55,2.74 8.2,1.73 18.82,2.24 7.56,0.36 28.6,0.36 32.82,-0.65 4.22,-1.02 22.91,-23.27 25.64,-28.68 2.73,-5.4 -11.06,10.74 -11.06,10.74z"/>
   <path class="fil7" d="M193.29 114.02c1.23,-0.45 27.04,-9.18 32.44,-10.28 5.41,-1.1 7.95,-14.64 7.95,-14.64 0,0 0.22,15.28 -2.61,16.11 -2.83,0.82 -31.56,7.99 -37.78,8.81z"/>
   <path class="fil7" d="M60.45 87.88c0,0 1.95,9.16 2.24,12.17 0.29,3.01 0.29,4.97 0.29,4.97 0,0 26.57,7.49 32.04,10.23 3.05,-0.33 16.5,-13.92 28.68,-19.84 0,0 -21.1,10.44 -26.29,14.4 -5.19,3.96 -31.43,-7.25 -31.43,-7.25 0,0 -2.9,-13.4 -5.53,-14.68z"/>
   <path class="fil8 str1" d="M242.79 53.33c-24.49,-24.28 -58.33,-39.3 -95.71,-39.3 -37.37,0 -71.21,15.02 -95.71,39.3 -24.49,24.28 -39.64,57.82 -39.64,94.87 0,37.05 15.15,70.6 39.64,94.88 24.5,24.28 58.34,39.29 95.71,39.29 37.38,0 71.22,-15.01 95.71,-39.29 24.49,-24.28 39.64,-57.83 39.64,-94.88 0,-37.05 -15.15,-70.59 -39.64,-94.87zm-95.71 -46.22c39.3,0 74.89,15.8 100.64,41.33 25.76,25.53 41.69,60.8 41.69,99.76 0,38.96 -15.93,74.23 -41.69,99.77 -25.75,25.53 -61.34,41.32 -100.64,41.32 -39.3,0 -74.88,-15.79 -100.64,-41.32 -25.75,-25.54 -41.69,-60.81 -41.69,-99.77 0,-38.96 15.94,-74.23 41.69,-99.76 25.76,-25.53 61.34,-41.33 100.64,-41.33z"/>
   <path class="fil4" d="M93.92 208.31c1.67,1.35 9.85,5.47 11.8,6.57 12.3,6.94 27.57,14.6 39.17,21.41 1.45,0.85 1.74,1.28 3.36,0.43 0.89,-0.46 2.18,-1.23 3.21,-1.79 2.2,-1.19 4.37,-2.41 6.45,-3.5l52.11 -28.42c3.47,-1.89 4.18,-1.45 4.14,-6.36 -0.3,-39.01 -0.01,-79.19 -0.01,-118.25l-134.4 0 -0.06 122.34 14.23 7.57z"/>
   <polygon class="fil9 str2" points="101.62,89.29 200.95,89.29 200.95,118.16 101.62,118.16 "/>
   <polygon class="fil9 str2" points="101.71,129.18 170.57,129.18 170.57,158.04 101.71,158.04 "/>
   <polygon class="fil9 str2" points="102.39,168.73 140.77,168.73 140.77,197.6 102.39,197.6 "/>
   <polygon class="fil9 str2" points="101.62,89.29 200.95,89.29 200.95,118.16 101.62,118.16 "/>
   <polygon class="fil9 str2" points="101.71,129.18 170.57,129.18 170.57,158.04 101.71,158.04 "/>
   <polygon class="fil9 str2" points="102.39,168.73 140.77,168.73 140.77,197.6 102.39,197.6 "/>
   <path class="fil1" d="M146.04 13.84c76.68,0 138.84,61.62 138.84,137.63 0,76.01 -62.16,137.63 -138.84,137.63 -76.68,0 -138.84,-61.62 -138.84,-137.63 0,-76.01 62.16,-137.63 138.84,-137.63z"/>
   <path class="fil2" d="M168.96 237.67c-80.26,0 -145.86,-62.17 -150.49,-140.58 21.27,-48.96 70.38,-83.25 127.57,-83.25 76.68,0 138.84,61.62 138.84,137.63 0,13.36 -1.93,26.28 -5.51,38.49 -27.52,29.34 -66.8,47.71 -110.41,47.71z"/>
   <path class="fil3" d="M146.04 48.66c20.12,-11.33 27.07,-12.87 45.98,-16.45 -1.81,-4.34 -3.29,-7.61 -4.94,-10.56 -12.84,-5.05 -26.65,-7.81 -41.04,-7.81 -14.39,0 -28.21,2.76 -41.06,7.82 -1.66,2.95 -3.14,6.21 -4.91,10.55 18.98,2.9 29.32,8.62 45.97,16.45z"/>
   <path class="fil3" d="M146.04 88.28c23.85,13.42 31.56,18.84 51.73,37.26 -5.5,26.63 -8.32,35.58 -19.76,60.28 -27.25,3.04 -36.7,3.15 -63.94,0 -11.34,-24.75 -14.36,-33.62 -19.76,-60.28 20.25,-18.34 27.83,-23.93 51.73,-37.26z"/>
   <path class="fil4 str1" d="M235.46 62.28c5.77,0.54 8.53,-2.17 14.8,-1.73 20.68,23.28 33.55,53.53 34.55,86.74 -7.2,4.21 -14.3,7.11 -21.03,9.89 -8.2,-26.39 -16.49,-34.36 -31.55,-44.5 4.53,-20.78 6.22,-30.09 3.23,-50.4z"/>
   <path class="fil3 str1" d="M59.9 59.35c-5.77,0.55 -11.8,0.76 -18.08,1.2 -20.68,23.28 -33.55,53.53 -34.55,86.74 7.21,4.21 14.3,7.11 21.04,9.89 8.19,-26.39 16.49,-34.36 31.54,-44.5 -4.35,-16.74 -2.94,-33.01 0.05,-53.33z"/>
   <polygon class="fil5" points="83.28,226.52 115.84,180.3 118.69,182.27 86.13,228.5 "/>
   <polygon class="fil5" points="177.35,181.87 207.69,224.95 204.85,226.92 174.5,183.84 "/>
   <polygon class="fil5" points="192.91,125.51 235.86,109.48 237.09,112.71 194.14,128.74 "/>
   <polygon class="fil5" points="97.62,128.62 55.31,112.83 56.54,109.6 98.85,125.39 "/>
   <polygon class="fil5" points="144.3,95.18 144.3,43.74 147.79,43.74 147.79,95.18 "/>
   <path class="fil5" d="M187.09 27.82c0.1,0.04 35.31,10.95 53.8,37.27l-2.87 1.97c-17.8,-25.36 -51.89,-35.92 -51.99,-35.95l1.06 -3.29z"/>
   <path class="fil4 str1" d="M254.54 203.55c1.29,6.79 4.46,18.36 5.95,25.85 -17.72,25.52 -43.9,44.82 -74.52,53.92 -6.42,-5.89 -11.4,-12.08 -16.14,-17.94 23.3,-15.14 28.71,-25.25 34.35,-42.41 23.87,-1.2 39.98,-11.17 50.36,-19.42z"/>
   <path class="fil4 str1" d="M37.55 203.55c-1.3,6.79 -4.47,18.36 -5.95,25.85 17.71,25.52 43.89,44.82 74.51,53.92 6.43,-5.89 11.41,-12.08 16.15,-17.94 -18.33,-14.23 -28.71,-25.25 -34.35,-42.41 -23.87,-1.2 -39.99,-11.17 -50.36,-19.42z"/>
   <path class="fil5" d="M29.2 149.51c0,0.08 0.11,27.79 12.35,59.09l-3.24 1.24c-12.48,-31.88 -12.59,-60.24 -12.59,-60.32l3.48 -0.01z"/>
   <path class="fil5" d="M267.73 148.22c0,0.08 -0.67,28.44 -13.77,60.31l-3.23 -1.3c12.87,-31.31 13.53,-59.02 13.53,-59.1l3.47 0.09z"/>
   <path class="fil5" d="M105.19 32.24c-0.08,0.02 -29.81,6.99 -47.4,32.03l-2.87 -1.97c18.35,-26.12 49.37,-33.39 49.46,-33.41l0.81 3.35z"/>
   <path class="fil5" d="M114.99 262.65c0.06,0.02 20.46,6.19 63.06,-0.05l0.5 3.41c-43.34,6.35 -64.47,-0.03 -64.53,-0.05l0.97 -3.31z"/>
   <path class="fil6" d="M190.58 127.13c0,0 -6.76,37.78 -16.92,53.57 0,0 -11.16,2.01 -31.07,1.59 -19.91,-0.41 -25.32,-3.1 -25.32,-3.1 19.82,0.09 33.76,1.37 53.41,-1.26 0,0 11.52,-21.09 19.9,-50.8z"/>
   <path class="fil6" d="M116.13 266.6c-8.76,7.65 -9.21,14.01 -21.19,9.37 -13.07,-5.06 -38.23,-25.12 -43.1,-30.49 6.93,5.39 27.86,20.7 42.35,26.17 9.83,3.7 14.08,1.67 21.94,-5.05z"/>
   <path class="fil6" d="M184.01 275.58l-8.5 -9.96c0,0 28.41,-21.81 33.3,-38.86 0,0 36.94,-5.99 43.97,-16.97l3 11.29 -3.93 -5.08c-1.53,1.12 -21.73,10.73 -40.38,14.62 -5.61,12.04 -16.91,24.76 -31.49,35.76 0,0 3.72,5.51 4.03,9.2z"/>
   <path class="fil6" d="M148.08 39.61c0,0 25.71,-9.12 33.69,-9.07 7.98,0.04 1.96,-5.19 -0.22,-7.78 -2.18,-2.6 -0.21,3.99 -0.21,3.99 0,0 -16.14,2.6 -33.26,12.86z"/>
   <path class="fil6" d="M240.64 67.71c2.63,13.07 5.96,28.92 1.86,41.94 16.23,13.05 18.22,19.02 24.96,37.5l10.14 0.43 -10.25 3.24c0,0 -13.82,-28.36 -22.35,-34.04 -8.52,-5.68 -8.52,-5.68 -8.52,-5.68 0,0 7.43,-15.94 4.16,-43.39z"/>
   <path class="fil6" d="M11.69 145.42c1.42,0.54 12.29,4.43 14.06,5.41 1.78,0.97 10.17,-22.43 18.97,-29.4 0,0 -3.42,1.91 -7.76,6.68 -2.63,2.88 -6.32,7.78 -7.72,11.21 -3.7,9.07 -4.36,7.99 -4.36,7.99l-13.19 -1.89z"/>
   <path class="fil7" d="M37.03 180.99c0,0 1.36,20.74 8.03,25.93 6.67,5.18 35.41,14.43 39.59,12.13 4.17,-2.3 16.8,-22.6 20.56,-27.05 1.95,-2.32 -1.42,-0.25 -4.41,3.17 -4.02,4.61 -11.04,12.59 -13.89,16.82 -4.96,7.37 -20.95,0.61 -28,-2.18 -3.64,-1.44 -7.65,-2.66 -11.47,-6.84 -3.59,-3.92 -6.71,-11.21 -10.41,-21.98z"/>
   <path class="fil7" d="M200.95 132.51l-8.94 32.03c0,0 -4.02,11.88 -3.65,14.83 0.35,2.84 6.51,-10.97 7.47,-13.75 0.67,-2.12 2.39,-5.27 3.48,-12.29 1.8,-11.69 1.57,-20.81 1.64,-20.82z"/>
   <path class="fil7" d="M231.26 120.97c-10.51,1.79 -15.77,3.55 -25.81,7.23 0,0 -1.5,2.75 3.03,2.33 1.97,-0.18 6.18,-2.52 11.46,-4.27 3.93,-1.3 8.68,-3.36 10.97,-4.28 1.72,-0.7 0.35,-1.01 0.35,-1.01z"/>
   <path class="fil7" d="M33.63 154l13.83 -21.91c0,0 5.66,-7.97 6.04,-10.25 0.37,-2.2 -7.31,6.74 -8.65,8.61 -0.97,1.43 -2.96,3.39 -5.34,8.39 -3.97,8.32 -5.83,15.17 -5.88,15.16z"/>
   <path class="fil7" d="M79.73 126.22c-7.24,-4.02 -11.28,-5.51 -19.16,-8.17 0,0 -2.28,0.93 0.67,2.88 1.28,0.85 4.98,1.48 9.03,2.99 3.02,1.12 6.91,2.18 8.75,2.74 1.38,0.41 0.71,-0.44 0.71,-0.44z"/>
   <path class="fil7" d="M211.31 214.34c0,0 31.41,-6.37 34.86,-12.93 3.44,-6.56 12.38,-38.51 12.55,-43.59 0.17,-5.08 -5.35,-18.15 -4.64,-16.74 0.7,1.41 7.29,11.86 7.2,14.96 -0.1,3.09 -7.2,43.82 -14.13,49.48 -6.94,5.65 -34.23,12.7 -35.84,8.82z"/>
   <path class="fil7" d="M166.32 193.58c-18.7,1.17 -28.35,0.55 -46.93,-1.05 0,0 -3.63,-1.24 4.32,-2.23 3.45,-0.43 13.24,1.16 22.94,1.75 7.22,0.44 14.44,-0.24 18.71,0.25 3.21,0.37 0.96,1.28 0.96,1.28z"/>
   <path class="fil7" d="M185.91 243.23c0,0 -9.28,9.32 -12.2,12.65 -2.92,3.33 -28.78,0.95 -40.07,1.89 -4.7,0.4 -10.16,-1.01 -14.74,-3.69 -6.83,-4 -13.17,-8.84 -18,-12.56 8.99,9.83 13.64,14.09 18.79,18.06 3.55,2.74 8.2,1.73 18.82,2.24 7.56,0.36 28.6,0.36 32.82,-0.65 4.22,-1.02 22.91,-23.27 25.64,-28.67 2.73,-5.41 -11.06,10.73 -11.06,10.73z"/>
   <path class="fil7" d="M192.25 117.3c1.23,-0.46 27.04,-9.19 32.44,-10.29 5.41,-1.1 7.95,-14.64 7.95,-14.64 0,0 0.22,15.28 -2.61,16.11 -2.83,0.82 -31.56,7.99 -37.78,8.82z"/>
   <path class="fil7" d="M59.41 91.16c0,0 1.95,9.15 2.24,12.16 0.29,3.01 0.3,4.97 0.3,4.97 0,0 26.56,7.49 32.03,10.23 3.05,-0.32 16.5,-13.92 28.68,-19.84 0,0 -21.1,10.44 -26.29,14.4 -5.19,3.96 -31.43,-7.25 -31.43,-7.25 0,0 -2.9,-13.4 -5.53,-14.67z"/>
   <path class="fil8 str1" d="M241.75 56.6c-24.49,-24.28 -58.33,-39.3 -95.71,-39.3 -37.37,0 -71.21,15.02 -95.71,39.3 -24.49,24.28 -39.64,57.82 -39.64,94.87 0,37.05 15.15,70.6 39.64,94.88 24.5,24.28 58.34,39.29 95.71,39.29 37.38,0 71.22,-15.01 95.71,-39.29 24.49,-24.28 39.64,-57.83 39.64,-94.88 0,-37.05 -15.15,-70.59 -39.64,-94.87zm-95.71 -46.21c39.31,0 74.89,15.79 100.64,41.32 25.76,25.53 41.69,60.8 41.69,99.76 0,38.96 -15.93,74.23 -41.69,99.77 -25.75,25.53 -61.33,41.32 -100.64,41.32 -39.3,0 -74.88,-15.79 -100.64,-41.32 -25.75,-25.54 -41.69,-60.81 -41.69,-99.77 0,-38.96 15.94,-74.23 41.69,-99.76 25.76,-25.53 61.34,-41.32 100.64,-41.32z"/>
   <path class="fil4" d="M92.88 211.58c1.67,1.35 9.85,5.47 11.8,6.57 12.3,6.94 27.57,14.6 39.17,21.41 1.45,0.85 1.75,1.28 3.36,0.43 0.89,-0.46 2.18,-1.23 3.21,-1.79 2.2,-1.19 4.37,-2.41 6.45,-3.5l52.11 -28.42c3.47,-1.89 4.18,-1.45 4.14,-6.36 -0.3,-39.01 -0.01,-79.19 -0.01,-118.25l-134.4 0 -0.06 122.34 14.23 7.57z"/>
   <polygon class="fil9 str2" points="100.58,92.56 199.91,92.56 199.91,121.43 100.58,121.43 "/>
   <polygon class="fil9 str2" points="100.67,132.45 169.53,132.45 169.53,161.31 100.67,161.31 "/>
   <polygon class="fil9 str2" points="101.35,172 139.73,172 139.73,200.87 101.35,200.87 "/>
   <polygon class="fil9 str2" points="100.58,92.56 199.91,92.56 199.91,121.43 100.58,121.43 "/>
   <polygon class="fil9 str2" points="100.67,132.45 169.53,132.45 169.53,161.31 100.67,161.31 "/>
   <polygon class="fil9 str2" points="101.35,172 139.73,172 139.73,200.87 101.35,200.87 "/>
   <path class="fil1" d="M146.04 13.84c76.68,0 138.84,61.62 138.84,137.63 0,76.01 -62.16,137.63 -138.84,137.63 -76.68,0 -138.84,-61.62 -138.84,-137.63 0,-76.01 62.16,-137.63 138.84,-137.63z"/>
   <path class="fil2" d="M168.96 237.67c-80.26,0 -145.86,-62.17 -150.49,-140.58 21.27,-48.96 70.38,-83.25 127.57,-83.25 76.68,0 138.84,61.62 138.84,137.63 0,13.36 -1.93,26.28 -5.51,38.49 -27.52,29.34 -66.8,47.71 -110.41,47.71z"/>
   <path class="fil3" d="M146.04 48.66c20.12,-11.33 27.07,-12.87 45.98,-16.45 -1.81,-4.34 -3.29,-7.61 -4.94,-10.56 -12.84,-5.05 -26.65,-7.81 -41.04,-7.81 -14.39,0 -28.21,2.76 -41.06,7.82 -1.66,2.95 -3.14,6.21 -4.91,10.55 18.98,2.9 29.32,8.62 45.97,16.45z"/>
   <path class="fil3" d="M146.04 88.28c23.85,13.42 31.56,18.84 51.73,37.26 -5.5,26.63 -8.32,35.58 -19.76,60.28 -27.25,3.04 -36.7,3.15 -63.94,0 -11.34,-24.75 -14.36,-33.62 -19.76,-60.28 20.25,-18.34 27.83,-23.93 51.73,-37.26z"/>
   <path class="fil4 str1" d="M235.46 62.28c5.77,0.54 8.53,-2.17 14.8,-1.73 20.68,23.28 33.55,53.53 34.55,86.74 -7.2,4.21 -14.3,7.11 -21.03,9.89 -8.2,-26.39 -16.49,-34.36 -31.55,-44.5 4.53,-20.78 6.22,-30.09 3.23,-50.4z"/>
   <path class="fil3 str1" d="M59.9 59.35c-5.77,0.55 -11.8,0.76 -18.08,1.2 -20.68,23.28 -33.55,53.53 -34.55,86.74 7.21,4.21 14.3,7.11 21.04,9.89 8.19,-26.39 16.49,-34.36 31.54,-44.5 -4.35,-16.74 -2.94,-33.01 0.05,-53.33z"/>
   <polygon class="fil5" points="83.28,226.52 115.84,180.3 118.69,182.27 86.13,228.5 "/>
   <polygon class="fil5" points="177.35,181.87 207.69,224.95 204.85,226.92 174.5,183.84 "/>
   <polygon class="fil5" points="192.91,125.51 235.86,109.48 237.09,112.71 194.14,128.74 "/>
   <polygon class="fil5" points="97.62,128.62 55.31,112.83 56.54,109.6 98.85,125.39 "/>
   <polygon class="fil5" points="144.3,95.18 144.3,43.74 147.79,43.74 147.79,95.18 "/>
   <path class="fil5" d="M187.09 27.82c0.1,0.04 35.31,10.95 53.8,37.27l-2.87 1.97c-17.8,-25.36 -51.89,-35.92 -51.99,-35.95l1.06 -3.29z"/>
   <path class="fil4 str1" d="M254.54 203.55c1.29,6.79 4.46,18.36 5.95,25.85 -17.72,25.52 -43.9,44.82 -74.52,53.92 -6.42,-5.89 -11.4,-12.08 -16.14,-17.94 23.3,-15.14 28.71,-25.25 34.35,-42.41 23.87,-1.2 39.98,-11.17 50.36,-19.42z"/>
   <path class="fil4 str1" d="M37.55 203.55c-1.3,6.79 -4.47,18.36 -5.95,25.85 17.71,25.52 43.89,44.82 74.51,53.92 6.43,-5.89 11.41,-12.08 16.15,-17.94 -18.33,-14.23 -28.71,-25.25 -34.35,-42.41 -23.87,-1.2 -39.99,-11.17 -50.36,-19.42z"/>
   <path class="fil5" d="M29.2 149.51c0,0.08 0.11,27.79 12.35,59.09l-3.24 1.24c-12.48,-31.88 -12.59,-60.24 -12.59,-60.32l3.48 -0.01z"/>
   <path class="fil5" d="M267.73 148.22c0,0.08 -0.67,28.44 -13.77,60.31l-3.23 -1.3c12.87,-31.31 13.53,-59.02 13.53,-59.1l3.47 0.09z"/>
   <path class="fil5" d="M105.19 32.24c-0.08,0.02 -29.81,6.99 -47.4,32.03l-2.87 -1.97c18.35,-26.12 49.37,-33.39 49.46,-33.41l0.81 3.35z"/>
   <path class="fil5" d="M114.99 262.65c0.06,0.02 20.46,6.19 63.06,-0.05l0.5 3.41c-43.34,6.35 -64.47,-0.03 -64.53,-0.05l0.97 -3.31z"/>
   <path class="fil6" d="M190.58 127.13c0,0 -6.76,37.78 -16.92,53.57 0,0 -11.16,2.01 -31.07,1.59 -19.91,-0.41 -25.32,-3.1 -25.32,-3.1 19.82,0.09 33.76,1.37 53.41,-1.26 0,0 11.52,-21.09 19.9,-50.8z"/>
   <path class="fil6" d="M116.13 266.6c-8.76,7.65 -9.21,14.01 -21.19,9.37 -13.07,-5.06 -38.23,-25.12 -43.1,-30.49 6.93,5.39 27.86,20.7 42.35,26.17 9.83,3.7 14.08,1.67 21.94,-5.05z"/>
   <path class="fil6" d="M184.01 275.58l-8.5 -9.96c0,0 28.41,-21.81 33.3,-38.86 0,0 36.94,-5.99 43.97,-16.97l3 11.29 -3.93 -5.08c-1.53,1.12 -21.73,10.73 -40.38,14.62 -5.61,12.04 -16.91,24.76 -31.49,35.76 0,0 3.72,5.51 4.03,9.2z"/>
   <path class="fil6" d="M148.08 39.61c0,0 25.71,-9.12 33.69,-9.07 7.98,0.04 1.96,-5.19 -0.22,-7.78 -2.18,-2.6 -0.21,3.99 -0.21,3.99 0,0 -16.14,2.6 -33.26,12.86z"/>
   <path class="fil6" d="M240.64 67.71c2.63,13.07 5.96,28.92 1.86,41.94 16.23,13.05 18.22,19.02 24.96,37.5l10.14 0.43 -10.25 3.24c0,0 -13.82,-28.36 -22.35,-34.04 -8.52,-5.68 -8.52,-5.68 -8.52,-5.68 0,0 7.43,-15.94 4.16,-43.39z"/>
   <path class="fil6" d="M11.69 145.42c1.42,0.54 12.29,4.43 14.06,5.41 1.78,0.97 10.17,-22.43 18.97,-29.4 0,0 -3.42,1.91 -7.76,6.68 -2.63,2.88 -6.32,7.78 -7.72,11.21 -3.7,9.07 -4.36,7.99 -4.36,7.99l-13.19 -1.89z"/>
   <path class="fil7" d="M37.03 180.99c0,0 1.36,20.74 8.03,25.93 6.67,5.18 35.41,14.43 39.59,12.13 4.17,-2.3 16.8,-22.6 20.56,-27.05 1.95,-2.32 -1.42,-0.25 -4.41,3.17 -4.02,4.61 -11.04,12.59 -13.89,16.82 -4.96,7.37 -20.95,0.61 -28,-2.18 -3.64,-1.44 -7.65,-2.66 -11.47,-6.84 -3.59,-3.92 -6.71,-11.21 -10.41,-21.98z"/>
   <path class="fil7" d="M200.95 132.51l-8.94 32.03c0,0 -4.02,11.88 -3.65,14.83 0.35,2.84 6.51,-10.97 7.47,-13.75 0.67,-2.12 2.39,-5.27 3.48,-12.29 1.8,-11.69 1.57,-20.81 1.64,-20.82z"/>
   <path class="fil7" d="M231.26 120.97c-10.51,1.79 -15.77,3.55 -25.81,7.23 0,0 -1.5,2.75 3.03,2.33 1.97,-0.18 6.18,-2.52 11.46,-4.27 3.93,-1.3 8.68,-3.36 10.97,-4.28 1.72,-0.7 0.35,-1.01 0.35,-1.01z"/>
   <path class="fil7" d="M33.63 154l13.83 -21.91c0,0 5.66,-7.97 6.04,-10.25 0.37,-2.2 -7.31,6.74 -8.65,8.61 -0.97,1.43 -2.96,3.39 -5.34,8.39 -3.97,8.32 -5.83,15.17 -5.88,15.16z"/>
   <path class="fil7" d="M79.73 126.22c-7.24,-4.02 -11.28,-5.51 -19.16,-8.17 0,0 -2.28,0.93 0.67,2.88 1.28,0.85 4.98,1.48 9.03,2.99 3.02,1.12 6.91,2.18 8.75,2.74 1.38,0.41 0.71,-0.44 0.71,-0.44z"/>
   <path class="fil7" d="M211.31 214.34c0,0 31.41,-6.37 34.86,-12.93 3.44,-6.56 12.38,-38.51 12.55,-43.59 0.17,-5.08 -5.35,-18.15 -4.64,-16.74 0.7,1.41 7.29,11.86 7.2,14.96 -0.1,3.09 -7.2,43.82 -14.13,49.48 -6.94,5.65 -34.23,12.7 -35.84,8.82z"/>
   <path class="fil7" d="M166.32 193.58c-18.7,1.17 -28.35,0.55 -46.93,-1.05 0,0 -3.63,-1.24 4.32,-2.23 3.45,-0.43 13.24,1.16 22.94,1.75 7.22,0.44 14.44,-0.24 18.71,0.25 3.21,0.37 0.96,1.28 0.96,1.28z"/>
   <path class="fil7" d="M185.91 243.23c0,0 -9.28,9.32 -12.2,12.65 -2.92,3.33 -28.78,0.95 -40.07,1.89 -4.7,0.4 -10.16,-1.01 -14.74,-3.69 -6.83,-4 -13.17,-8.84 -18,-12.56 8.99,9.83 13.64,14.09 18.79,18.06 3.55,2.74 8.2,1.73 18.82,2.24 7.56,0.36 28.6,0.36 32.82,-0.65 4.22,-1.02 22.91,-23.27 25.64,-28.67 2.73,-5.41 -11.06,10.73 -11.06,10.73z"/>
   <path class="fil7" d="M192.25 117.3c1.23,-0.46 27.04,-9.19 32.44,-10.29 5.41,-1.1 7.95,-14.64 7.95,-14.64 0,0 0.22,15.28 -2.61,16.11 -2.83,0.82 -31.56,7.99 -37.78,8.82z"/>
   <path class="fil7" d="M59.41 91.16c0,0 1.95,9.15 2.24,12.16 0.29,3.01 0.3,4.97 0.3,4.97 0,0 26.56,7.49 32.03,10.23 3.05,-0.32 16.5,-13.92 28.68,-19.84 0,0 -21.1,10.44 -26.29,14.4 -5.19,3.96 -31.43,-7.25 -31.43,-7.25 0,0 -2.9,-13.4 -5.53,-14.67z"/>
   <path class="fil8 str1" d="M241.75 56.6c-24.49,-24.28 -58.33,-39.3 -95.71,-39.3 -37.37,0 -71.21,15.02 -95.71,39.3 -24.49,24.28 -39.64,57.82 -39.64,94.87 0,37.05 15.15,70.6 39.64,94.88 24.5,24.28 58.34,39.29 95.71,39.29 37.38,0 71.22,-15.01 95.71,-39.29 24.49,-24.28 39.64,-57.83 39.64,-94.88 0,-37.05 -15.15,-70.59 -39.64,-94.87zm-95.71 -46.21c39.31,0 74.89,15.79 100.64,41.32 25.76,25.53 41.69,60.8 41.69,99.76 0,38.96 -15.93,74.23 -41.69,99.77 -25.75,25.53 -61.33,41.32 -100.64,41.32 -39.3,0 -74.88,-15.79 -100.64,-41.32 -25.75,-25.54 -41.69,-60.81 -41.69,-99.77 0,-38.96 15.94,-74.23 41.69,-99.76 25.76,-25.53 61.34,-41.32 100.64,-41.32z"/>
   <path class="fil4" d="M92.88 211.58c1.67,1.35 9.85,5.47 11.8,6.57 12.3,6.94 27.57,14.6 39.17,21.41 1.45,0.85 1.75,1.28 3.36,0.43 0.89,-0.46 2.18,-1.23 3.21,-1.79 2.2,-1.19 4.37,-2.41 6.45,-3.5l52.11 -28.42c3.47,-1.89 4.18,-1.45 4.14,-6.36 -0.3,-39.01 -0.01,-79.19 -0.01,-118.25l-134.4 0 -0.06 122.34 14.23 7.57z"/>
   <polygon class="fil9 str2" points="100.58,92.56 199.91,92.56 199.91,121.43 100.58,121.43 "/>
   <polygon class="fil9 str2" points="100.67,132.45 169.53,132.45 169.53,161.31 100.67,161.31 "/>
   <polygon class="fil9 str2" points="101.35,172 139.73,172 139.73,200.87 101.35,200.87 "/>
   <polygon class="fil9 str2" points="100.58,92.56 199.91,92.56 199.91,121.43 100.58,121.43 "/>
   <polygon class="fil9 str2" points="100.67,132.45 169.53,132.45 169.53,161.31 100.67,161.31 "/>
   <polygon class="fil9 str2" points="101.35,172 139.73,172 139.73,200.87 101.35,200.87 "/>
  </g>
 </g>
</svg>
